<?xml version="1.0" encoding="utf-8"?>
<!-- Generator: Adobe Illustrator 19.0.0, SVG Export Plug-In . SVG Version: 6.00 Build 0)  -->
<svg version="1.1" id="图层_1" xmlns="http://www.w3.org/2000/svg" xmlns:xlink="http://www.w3.org/1999/xlink" x="0px" y="0px"
	 viewBox="-3443 3443.6 200 200" style="enable-background:new -3443 3443.6 200 200;" xml:space="preserve">
<style type="text/css">
	.st0{fill:#C8C8CD;}
</style>
<path class="st0" d="M-3343,3628.5c-46.8,0-84.9-38.1-84.9-84.9c0-46.8,38.1-84.9,84.9-84.9s84.9,38.1,84.9,84.9
	C-3258.1,3590.4-3296.2,3628.5-3343,3628.5z M-3343,3466.7c-42.4,0-76.9,34.5-76.9,76.9c0,42.4,34.5,76.9,76.9,76.9
	s76.9-34.5,76.9-76.9C-3266.1,3501.2-3300.6,3466.7-3343,3466.7z"/>
<path class="st0" d="M-3343.4,3563.7c-20.8,0-37.7-16.9-37.7-37.7s16.9-37.7,37.7-37.7c20.8,0,37.7,16.9,37.7,37.7
	S-3322.6,3563.7-3343.4,3563.7z M-3343.4,3496.3c-16.4,0-29.7,13.3-29.7,29.7s13.3,29.7,29.7,29.7c16.4,0,29.7-13.3,29.7-29.7
	S-3327,3496.3-3343.4,3496.3z"/>
<path class="st0" d="M-3343,3628.5c-21.9,0-42.8-8.4-58.7-23.5l-1.7-1.6l0.7-2.3c7.3-26.7,31.7-45.3,59.3-45.3
	c28,0,52.4,18.9,59.5,45.9l0.5,2.3l-1.7,1.6C-3300.7,3620.4-3321.3,3628.5-3343,3628.5z M-3394.3,3600.9
	c14.1,12.7,32.3,19.6,51.3,19.6c18.8,0,36.7-6.8,50.7-19.2c-6.8-22.3-27.5-37.6-51.1-37.6
	C-3366.6,3563.7-3387.3,3578.9-3394.3,3600.9L-3394.3,3600.9z"/>
</svg>
