<?xml version="1.0" encoding="utf-8"?>
<!-- Generator: Adobe Illustrator 19.0.0, SVG Export Plug-In . SVG Version: 6.00 Build 0)  -->
<svg version="1.1" id="图层_1" xmlns="http://www.w3.org/2000/svg" xmlns:xlink="http://www.w3.org/1999/xlink" x="0px" y="0px"
	 viewBox="-3443 3443.6 200 200" style="enable-background:new -3443 3443.6 200 200;" xml:space="preserve">
<style type="text/css">
	.st0{fill:#C8C8CD;}
</style>
<path class="st0" d="M-3256.1,3543.8c0,47.9-38.9,86.7-86.8,86.7c-48,0-86.8-38.8-86.8-86.7c0-36.8,22.9-68.2,55.2-80.8
	c9.8-3.9,20.4-6.1,31.6-6.1c11.2,0,21.9,2.2,31.6,6.1C-3279,3475.6-3256.1,3507-3256.1,3543.8L-3256.1,3543.8 M-3376.4,3525.5
	c0,14.6,7.5,27.3,18.4,33.5c4.5,2.6,9.6,4.1,15,4.1c5.2,0,10.1-1.4,14.5-3.8c11.1-6.1,18.9-18.9,18.9-33.7c0-20.7-15-37.5-33.4-37.5
	C-3361.4,3488-3376.4,3504.8-3376.4,3525.5L-3376.4,3525.5 M-3342.6,3624.9c25.4,0,48-11.7,62.8-29.9c-1.8-14.4-15.8-26.7-35.6-32.8
	c-7.5,6.7-17.1,10.8-27.5,10.8c-10.7,0-20.5-4.3-28-11.3c-19.3,5.5-33.5,16.8-36.8,30.2C-3393.1,3611.9-3369.4,3624.9-3342.6,3624.9
	L-3342.6,3624.9 M-3342.6,3624.9L-3342.6,3624.9z"/>
</svg>
