<?xml version="1.0" encoding="utf-8"?>
<!-- Generator: Adobe Illustrator 19.0.0, SVG Export Plug-In . SVG Version: 6.00 Build 0)  -->
<svg version="1.1" id="隔离模式" xmlns="http://www.w3.org/2000/svg" xmlns:xlink="http://www.w3.org/1999/xlink" x="0px"
	 y="0px" viewBox="0 0 1310.4 519.6" style="enable-background:new 0 0 1310.4 519.6;" xml:space="preserve">
<style type="text/css">
	.st0{fill:#EDECEB;}
	.st1{fill:#F2F2F2;}
	.st2{fill:#F2F2F1;}
	.st3{fill:#D87033;}
</style>
<g id="XMLID_1_">
	<g id="XMLID_18_">
		<g id="XMLID_19_" transform="scale(0.1953125, 0.1953125)">
			<path id="XMLID_20_" class="st0" d="M1089.3,2178.5C488.7,2178.5,0,1689.8,0,1089.2C0,488.6,488.7,0,1089.3,0
				c600.6,0,1089.2,488.6,1089.2,1089.2c0,80.6-8.9,161-26.3,238.9c-10.1,45-54.6,73.2-99.8,63.3c-45-10.1-73.4-54.7-63.3-99.8
				c14.7-66,22.2-134.1,22.2-202.4c0-508.5-413.7-922.2-922.1-922.2c-508.5,0-922.2,413.7-922.2,922.2
				c0,508.5,413.7,922.2,922.2,922.2c87.2,0,173.5-12.1,256.3-36c44.2-13,90.6,12.7,103.4,57.1c12.8,44.3-12.8,90.6-57.1,103.4
				C1294,2164.2,1192.2,2178.5,1089.3,2178.5L1089.3,2178.5L1089.3,2178.5L1089.3,2178.5z"/>
		</g>
	</g>
	<g id="XMLID_6_">
		<path id="XMLID_7_" class="st1" d="M500.8,296.5v-24.9h237.9v24.9H698v75.9h51v24.9h-51v120.1h-38.5V397.3h-75.9
			c1.5,55.9-27.6,96.7-87.2,122.3v-24.9c33.2-20.4,49.1-52.9,47.6-97.4h-56.6v-24.9h56.6v-75.9H500.8z M583.5,296.5v75.9h75.9v-75.9
			H583.5z"/>
		<path id="XMLID_10_" class="st2" d="M770.3,318v-23.8h13.6v-35.1h30.6v35.1h30.6v-35.1h29.5v35.1h13.6V318h-13.6v56.6
			c0.7,43.8-7.9,76.3-26.1,97.4c9.8,9.1,22.7,16.2,38.5,21.5v23.8c-23.4-9.1-42.7-18.1-57.8-27.2c-14.4,9.1-33.6,18.1-57.8,27.2
			v-23.8c15.9-5.3,29.1-12.5,39.6-21.5c-18.9-20.4-27.9-52.9-27.2-97.4V318H770.3z M829.2,450.5c10.6-16.6,15.9-41.5,15.9-74.8V318
			h-30.6v57.8C814.5,408.3,819.4,433.2,829.2,450.5z M883.6,397.3v-24.9h60v-34c17.4-12.8,31.3-27.6,41.9-44.2h-90.6v-23.8h132.5
			v24.9c-9.8,18.1-25.7,34.7-47.6,49.8v27.2h55.5v24.9h-55.5v75.9c2.3,28.7-12.5,42.3-44.2,40.8h-27.2v-23.8h14.7
			c15.1,0.7,21.9-4.5,20.4-15.9v-77H883.6z"/>
		<path id="XMLID_14_" class="st1" d="M1057.8,307.8V284h62.3c0.7-2.3,1.9-5.7,3.4-10.2c2.3-6.8,3.8-12.1,4.5-15.9h40.8
			c-1.5,3.8-3.8,9.1-6.8,15.9c-1.5,4.5-2.7,7.9-3.4,10.2h145v23.8h-155.2c-9.1,18.9-22.3,40.8-39.6,65.7h57.8v-41.9h38.5v41.9h82.7
			v24.9H1205v40.8h105.4v24.9H1205v54.4h-38.5v-54.4h-116.7v-24.9h116.7v-40.8h-91.8v-24.9c16.6-26.4,28.7-48.3,36.2-65.7H1057.8z"
			/>
	</g>
	<g id="XMLID_2_">
		<g id="XMLID_3_" transform="scale(0.1953125, 0.1953125)">
			<path id="XMLID_4_" class="st3" d="M1728.2,1850c0,34.7,14.3,69.1,38.8,93.6c24.5,24.5,59,38.8,93.6,38.8
				c34.7,0,69.1-14.3,93.6-38.8c24.5-24.5,38.8-59,38.8-93.6c0-34.7-14.3-69.1-38.8-93.6c-24.5-24.5-59-38.8-93.6-38.8
				c-34.6,0-69.1,14.3-93.6,38.8C1742.5,1780.9,1728.2,1815.3,1728.2,1850L1728.2,1850z"/>
		</g>
	</g>
</g>
</svg>
